<svg width="128" height="128" viewBox="0 0 128 128" fill="none" xmlns="http://www.w3.org/2000/svg">
<rect width="128" height="128" rx="35" fill="#F15156"/>
<path fill-rule="evenodd" clip-rule="evenodd" d="M84.3539 53.1342C78.1658 57.8314 77.2292 58.6799 71.8919 62.7752C72.1437 62.779 73.3003 62.1819 74.4566 61.5848C75.6127 60.9879 76.7686 60.3911 77.0202 60.3949L77.571 60.4033C78.8954 60.4235 80.2299 60.4439 81.556 60.465L107.256 64.5273L54.5217 100.196C52.4316 101.456 50.3633 102.723 48.3308 104C48.3308 104 69.3147 74.5947 73.3989 68.7748C68.0005 73.5682 67.4606 73.5682 64.7614 73.3822C61.7031 73.4156 58.643 73.4483 55.581 73.48L21 73.5682L30.9265 64.369C38.3807 56.7008 46.0205 49.0885 53.6604 41.4761C58.0433 37.109 62.4269 32.7412 66.7747 28.3636C68.218 26.9104 69.6573 25.4559 71.0916 24L108 35.1038C106.225 36.4572 104.455 37.8121 102.689 39.1682C97.1739 43.4031 90.7517 48.2779 84.3539 53.1342Z" fill="#1E1E1E"/>
</svg>
