<svg width="425" height="425" viewBox="0 0 425 425" fill="none" xmlns="http://www.w3.org/2000/svg">
<rect width="425" height="425" fill="#E96464"/>
<path d="M123.266 115.409V328.147L89.4902 309.853H89V96.8525L123.266 115.409Z" fill="#AAAAAA"/>
<rect x="336" y="328.147" width="212.734" height="212.734" transform="rotate(-180 336 328.147)" fill="#EDEDED"/>
<path d="M301.734 96.8525L336 115.413H123.266L89 96.8525H301.734Z" fill="#D9D9D9"/>
<path d="M300.985 250.933L302.321 251.823L303.687 250.979L310.281 246.898L315.258 250.816L316.969 252.164L318.538 250.654L318.867 250.337V311.015H268.988V249.387L270.804 250.816L272.229 251.938L273.736 250.933L279.855 246.855L285.975 250.933L287.36 251.856L288.747 250.933L294.865 246.855L300.985 250.933ZM318.867 243.396L316.639 245.541L312 241.889L310.626 240.807L309.139 241.727L302.42 245.882L296.252 241.772L294.866 240.849L293.479 241.772L287.36 245.849L281.242 241.772L279.855 240.849L278.47 241.772L272.473 245.767L268.988 243.023V230.853H318.867V243.396Z" fill="#E66E6E"/>
</svg>
