<svg width="247" height="232" viewBox="0 0 247 232" fill="none" xmlns="http://www.w3.org/2000/svg">
<path d="M34.2656 18.5566V231.295L0.490234 213H0V0L34.2656 18.5566Z" fill="#AAAAAA"/>
<rect x="247" y="231.295" width="212.734" height="212.734" transform="rotate(-180 247 231.295)" fill="#EDEDED"/>
<path d="M212.734 0L247 18.5605H34.2656L0 0H212.734Z" fill="#D9D9D9"/>
<path d="M211.985 154.08L213.321 154.971L214.687 154.126L221.281 150.046L226.258 153.964L227.969 155.312L229.538 153.802L229.867 153.484V214.162H179.988V152.534L181.804 153.964L183.229 155.086L184.736 154.08L190.855 150.003L196.975 154.08L198.36 155.004L199.747 154.08L205.865 150.003L211.985 154.08ZM229.867 146.544L227.639 148.688L223 145.036L221.626 143.954L220.139 144.874L213.42 149.029L207.252 144.92L205.866 143.996L204.479 144.92L198.36 148.996L192.242 144.92L190.855 143.996L189.47 144.92L183.473 148.914L179.988 146.171V134H229.867V146.544Z" fill="#E66E6E"/>
</svg>
