<svg width="128" height="128" viewBox="0 0 128 128" fill="none" xmlns="http://www.w3.org/2000/svg">
<path fill-rule="evenodd" clip-rule="evenodd" d="M90.0155 49.2387C81.9069 55.4037 80.6796 56.5174 73.686 61.8924C74.0159 61.8975 75.5314 61.1137 77.0466 60.33C78.5615 59.5466 80.0761 58.7633 80.4058 58.7683L81.1275 58.7794C82.8629 58.8059 84.6116 58.8327 86.3492 58.8603L120.025 64.192L50.925 111.008C48.1862 112.661 45.476 114.324 42.8128 116C42.8128 116 70.3089 77.4056 75.6606 69.7669C68.5868 76.0582 67.8794 76.0582 64.3425 75.8141C60.3351 75.858 56.3253 75.9009 52.313 75.9425L7 76.0582L20.0072 63.9843C29.7747 53.9198 39.7855 43.9286 49.7964 33.9374C55.5395 28.2056 61.2835 22.4728 66.9806 16.7272C68.8718 14.8199 70.7579 12.9109 72.6373 11L121 25.5738C118.674 27.3501 116.355 29.1284 114.041 30.9083C106.814 36.4666 98.3988 42.8647 90.0155 49.2387Z" fill="#F15156"/>
</svg>
