<svg width="448" height="75" viewBox="0 0 448 75" fill="none" xmlns="http://www.w3.org/2000/svg">
<path d="M247.5 36C312.522 28.2827 368.134 21.0237 433.157 13.3121C436.702 12.8917 437.452 12.8036 437.28 12.825C437.913 12.7493 438.795 12.644 440 12.5C442.344 24.3938 444.689 36.2881 447.033 48.1819C436.389 49.116 450.642 47.09 440 48.0329C352.059 55.8239 290.239 60.7235 202.261 68.3249L133.67 75L187.766 44.0837C193.71 40.7892 209.55 34.2891 215.5 31C212.965 31.1432 200.536 34.492 198 34.6299C142.835 37.6302 87.4509 39.4307 32.1705 41.7977C21.4423 42.257 10.718 42.7374 0 43.2526C10.537 41.7405 21.0676 40.1937 31.5945 38.6259C104.916 27.7053 178.05 15.7464 251.789 7.11995C254.606 6.79038 257.423 6.46159 260.241 6.1334L319.625 0L272.962 27.7338C271.021 28.9298 269.078 30.1242 267.135 31.3185L266.149 31.9249C265.477 32.3383 248.172 35.5865 247.5 36Z" fill="#F15156"/>
</svg>
