<svg width="281" height="261" viewBox="0 0 281 261" fill="none" xmlns="http://www.w3.org/2000/svg">
<path d="M67.0005 47.2021H67.5005V46.9043L67.2386 46.7625L67.0005 47.2021ZM67.0005 259.94L66.7623 260.38L67.5005 260.78V259.94H67.0005ZM33.2251 241.646L33.4632 241.206L33.3518 241.146H33.2251V241.646ZM32.7349 241.646H32.2349V242.146H32.7349V241.646ZM32.7349 28.6455L32.973 28.2058L32.2349 27.8061V28.6455H32.7349ZM64.3831 45.2161L63.9435 44.978L63.4672 45.8573L63.9069 46.0954L64.145 45.6558L64.3831 45.2161ZM58.196 43.0027L58.6356 43.2408L59.1119 42.3614L58.6722 42.1233L58.4341 42.563L58.196 43.0027ZM52.9612 39.0305L52.5216 38.7924L52.0454 39.6718L52.485 39.9099L52.7231 39.4702L52.9612 39.0305ZM46.7741 36.8171L47.2138 37.0552L47.69 36.1759L47.2503 35.9378L47.0122 36.3774L46.7741 36.8171ZM41.5394 32.845L41.0997 32.6069L40.6235 33.4862L41.0632 33.7243L41.3013 33.2847L41.5394 32.845ZM35.3522 30.6316L35.7919 30.8697L36.2681 29.9903L35.8284 29.7522L35.5903 30.1919L35.3522 30.6316ZM32.2349 31.6038V32.1038H33.2349V31.6038H32.7349H32.2349ZM33.2349 37.5205V37.0205H32.2349V37.5205H32.7349H33.2349ZM32.2349 43.4372V43.9372H33.2349V43.4372H32.7349H32.2349ZM33.2349 49.3538V48.8538H32.2349V49.3538H32.7349H33.2349ZM32.2349 55.2705V55.7705H33.2349V55.2705H32.7349H32.2349ZM33.2349 61.1872V60.6872H32.2349V61.1872H32.7349H33.2349ZM32.2349 67.1038V67.6038H33.2349V67.1038H32.7349H32.2349ZM33.2349 73.0205V72.5205H32.2349V73.0205H32.7349H33.2349ZM32.2349 78.9372V79.4372H33.2349V78.9372H32.7349H32.2349ZM33.2349 84.8538V84.3538H32.2349V84.8538H32.7349H33.2349ZM32.2349 90.7705V91.2705H33.2349V90.7705H32.7349H32.2349ZM33.2349 96.6872V96.1872H32.2349V96.6872H32.7349H33.2349ZM32.2349 102.604V103.104H33.2349V102.604H32.7349H32.2349ZM33.2349 108.521V108.021H32.2349V108.521H32.7349H33.2349ZM32.2349 114.437V114.937H33.2349V114.437H32.7349H32.2349ZM33.2349 120.354V119.854H32.2349V120.354H32.7349H33.2349ZM32.2349 126.27V126.77H33.2349V126.27H32.7349H32.2349ZM33.2349 132.187V131.687H32.2349V132.187H32.7349H33.2349ZM32.2349 138.104V138.604H33.2349V138.104H32.7349H32.2349ZM33.2349 144.02V143.52H32.2349V144.02H32.7349H33.2349ZM32.2349 149.937V150.437H33.2349V149.937H32.7349H32.2349ZM33.2349 155.854V155.354H32.2349V155.854H32.7349H33.2349ZM32.2349 161.77V162.27H33.2349V161.77H32.7349H32.2349ZM33.2349 167.687V167.187H32.2349V167.687H32.7349H33.2349ZM32.2349 173.604V174.104H33.2349V173.604H32.7349H32.2349ZM33.2349 179.521V179.021H32.2349V179.521H32.7349H33.2349ZM32.2349 185.437V185.937H33.2349V185.437H32.7349H32.2349ZM33.2349 191.354V190.854H32.2349V191.354H32.7349H33.2349ZM32.2349 197.271V197.771H33.2349V197.271H32.7349H32.2349ZM33.2349 203.187V202.687H32.2349V203.187H32.7349H33.2349ZM32.2349 209.104V209.604H33.2349V209.104H32.7349H32.2349ZM33.2349 215.021V214.521H32.2349V215.021H32.7349H33.2349ZM32.2349 220.937V221.437H33.2349V220.937H32.7349H32.2349ZM33.2349 226.854V226.354H32.2349V226.854H32.7349H33.2349ZM32.2349 232.771V233.271H33.2349V232.771H32.7349H32.2349ZM33.2349 238.687V238.187H32.2349V238.687H32.7349H33.2349ZM32.8574 242.146H33.3574V241.146H32.8574V241.646V242.146ZM33.1025 241.146H32.6025V242.146H33.1025V241.646V241.146ZM35.8016 243.61L36.2412 243.848L36.7175 242.969L36.2779 242.73L36.0397 243.17L35.8016 243.61ZM41.9071 245.78L41.4674 245.541L40.9912 246.421L41.4308 246.659L41.6689 246.219L41.9071 245.78ZM47.06 249.708L47.4997 249.946L47.976 249.067L47.5363 248.829L47.2982 249.268L47.06 249.708ZM53.1656 251.878L52.7259 251.64L52.2496 252.519L52.6893 252.757L52.9274 252.318L53.1656 251.878ZM58.3185 255.806L58.7581 256.044L59.2344 255.165L58.7948 254.927L58.5566 255.367L58.3185 255.806ZM64.424 257.976L63.9844 257.738L63.5081 258.617L63.9477 258.855L64.1859 258.416L64.424 257.976ZM67.5005 256.986V256.486H66.5005V256.986H67.0005H67.5005ZM66.5005 251.076V251.576H67.5005V251.076H67.0005H66.5005ZM67.5005 245.167V244.667H66.5005V245.167H67.0005H67.5005ZM66.5005 239.258V239.758H67.5005V239.258H67.0005H66.5005ZM67.5005 233.348V232.848H66.5005V233.348H67.0005H67.5005ZM66.5005 227.439V227.939H67.5005V227.439H67.0005H66.5005ZM67.5005 221.529V221.029H66.5005V221.529H67.0005H67.5005ZM66.5005 215.62V216.12H67.5005V215.62H67.0005H66.5005ZM67.5005 209.711V209.211H66.5005V209.711H67.0005H67.5005ZM66.5005 203.801V204.301H67.5005V203.801H67.0005H66.5005ZM67.5005 197.892V197.392H66.5005V197.892H67.0005H67.5005ZM66.5005 191.982V192.482H67.5005V191.982H67.0005H66.5005ZM67.5005 186.073V185.573H66.5005V186.073H67.0005H67.5005ZM66.5005 180.164V180.664H67.5005V180.164H67.0005H66.5005ZM67.5005 174.254V173.754H66.5005V174.254H67.0005H67.5005ZM66.5005 168.345V168.845H67.5005V168.345H67.0005H66.5005ZM67.5005 162.435V161.935H66.5005V162.435H67.0005H67.5005ZM66.5005 156.526V157.026H67.5005V156.526H67.0005H66.5005ZM67.5005 150.617V150.117H66.5005V150.617H67.0005H67.5005ZM66.5005 144.707V145.207H67.5005V144.707H67.0005H66.5005ZM67.5005 138.798V138.298H66.5005V138.798H67.0005H67.5005ZM66.5005 132.888V133.388H67.5005V132.888H67.0005H66.5005ZM67.5005 126.979V126.479H66.5005V126.979H67.0005H67.5005ZM66.5005 121.07V121.57H67.5005V121.07H67.0005H66.5005ZM67.5005 115.16V114.66H66.5005V115.16H67.0005H67.5005ZM66.5005 109.251V109.751H67.5005V109.251H67.0005H66.5005ZM67.5005 103.341V102.841H66.5005V103.341H67.0005H67.5005ZM66.5005 97.4321V97.9321H67.5005V97.4321H67.0005H66.5005ZM67.5005 91.5227V91.0227H66.5005V91.5227H67.0005H67.5005ZM66.5005 85.6133V86.1133H67.5005V85.6133H67.0005H66.5005ZM67.5005 79.7039V79.2039H66.5005V79.7039H67.0005H67.5005ZM66.5005 73.7945V74.2945H67.5005V73.7945H67.0005H66.5005ZM67.5005 67.8851V67.3851H66.5005V67.8851H67.0005H67.5005ZM66.5005 61.9757V62.4757H67.5005V61.9757H67.0005H66.5005ZM67.5005 56.0663V55.5663H66.5005V56.0663H67.0005H67.5005ZM66.5005 50.1569V50.6569H67.5005V50.1569H67.0005H66.5005ZM67.0005 47.2021L67.2386 46.7625L64.3831 45.2161L64.145 45.6558L63.9069 46.0954L66.7624 47.6418L67.0005 47.2021ZM58.4341 42.563L58.6722 42.1233L52.9612 39.0305L52.7231 39.4702L52.485 39.9099L58.196 43.0027L58.4341 42.563ZM47.0122 36.3774L47.2503 35.9378L41.5394 32.845L41.3013 33.2847L41.0632 33.7243L46.7741 36.8171L47.0122 36.3774ZM35.5903 30.1919L35.8284 29.7522L32.973 28.2058L32.7349 28.6455L32.4968 29.0852L35.3522 30.6316L35.5903 30.1919ZM32.7349 28.6455H32.2349V31.6038H32.7349H33.2349V28.6455H32.7349ZM32.7349 37.5205H32.2349V43.4372H32.7349H33.2349V37.5205H32.7349ZM32.7349 49.3538H32.2349V55.2705H32.7349H33.2349V49.3538H32.7349ZM32.7349 61.1872H32.2349V67.1038H32.7349H33.2349V61.1872H32.7349ZM32.7349 73.0205H32.2349V78.9372H32.7349H33.2349V73.0205H32.7349ZM32.7349 84.8538H32.2349V90.7705H32.7349H33.2349V84.8538H32.7349ZM32.7349 96.6872H32.2349V102.604H32.7349H33.2349V96.6872H32.7349ZM32.7349 108.521H32.2349V114.437H32.7349H33.2349V108.521H32.7349ZM32.7349 120.354H32.2349V126.27H32.7349H33.2349V120.354H32.7349ZM32.7349 132.187H32.2349V138.104H32.7349H33.2349V132.187H32.7349ZM32.7349 144.02H32.2349V149.937H32.7349H33.2349V144.02H32.7349ZM32.7349 155.854H32.2349V161.77H32.7349H33.2349V155.854H32.7349ZM32.7349 167.687H32.2349V173.604H32.7349H33.2349V167.687H32.7349ZM32.7349 179.521H32.2349V185.437H32.7349H33.2349V179.521H32.7349ZM32.7349 191.354H32.2349V197.271H32.7349H33.2349V191.354H32.7349ZM32.7349 203.187H32.2349V209.104H32.7349H33.2349V203.187H32.7349ZM32.7349 215.021H32.2349V220.937H32.7349H33.2349V215.021H32.7349ZM32.7349 226.854H32.2349V232.771H32.7349H33.2349V226.854H32.7349ZM32.7349 238.687H32.2349V241.646H32.7349H33.2349V238.687H32.7349ZM32.7349 241.646V242.146H32.8574V241.646V241.146H32.7349V241.646ZM33.1025 241.646V242.146H33.2251V241.646V241.146H33.1025V241.646ZM33.2251 241.646L32.987 242.085L35.8016 243.61L36.0397 243.17L36.2779 242.73L33.4632 241.206L33.2251 241.646ZM41.6689 246.219L41.4308 246.659L47.06 249.708L47.2982 249.268L47.5363 248.829L41.9071 245.78L41.6689 246.219ZM52.9274 252.318L52.6893 252.757L58.3185 255.806L58.5566 255.367L58.7948 254.927L53.1656 251.878L52.9274 252.318ZM64.1859 258.416L63.9477 258.855L66.7623 260.38L67.0005 259.94L67.2386 259.501L64.424 257.976L64.1859 258.416ZM67.0005 259.94H67.5005V256.986H67.0005H66.5005V259.94H67.0005ZM67.0005 251.076H67.5005V245.167H67.0005H66.5005V251.076H67.0005ZM67.0005 239.258H67.5005V233.348H67.0005H66.5005V239.258H67.0005ZM67.0005 227.439H67.5005V221.529H67.0005H66.5005V227.439H67.0005ZM67.0005 215.62H67.5005V209.711H67.0005H66.5005V215.62H67.0005ZM67.0005 203.801H67.5005V197.892H67.0005H66.5005V203.801H67.0005ZM67.0005 191.982H67.5005V186.073H67.0005H66.5005V191.982H67.0005ZM67.0005 180.164H67.5005V174.254H67.0005H66.5005V180.164H67.0005ZM67.0005 168.345H67.5005V162.435H67.0005H66.5005V168.345H67.0005ZM67.0005 156.526H67.5005V150.617H67.0005H66.5005V156.526H67.0005ZM67.0005 144.707H67.5005V138.798H67.0005H66.5005V144.707H67.0005ZM67.0005 132.888H67.5005V126.979H67.0005H66.5005V132.888H67.0005ZM67.0005 121.07H67.5005V115.16H67.0005H66.5005V121.07H67.0005ZM67.0005 109.251H67.5005V103.341H67.0005H66.5005V109.251H67.0005ZM67.0005 97.4321H67.5005V91.5227H67.0005H66.5005V97.4321H67.0005ZM67.0005 85.6133H67.5005V79.7039H67.0005H66.5005V85.6133H67.0005ZM67.0005 73.7945H67.5005V67.8851H67.0005H66.5005V73.7945H67.0005ZM67.0005 61.9757H67.5005V56.0663H67.0005H66.5005V61.9757H67.0005ZM67.0005 50.1569H67.5005V47.2021H67.0005H66.5005V50.1569H67.0005Z" fill="#F0EEE6"/>
<rect x="279.735" y="259.94" width="212.734" height="212.734" transform="rotate(-180 279.735 259.94)" stroke="#F0EEE6" stroke-linecap="square" stroke-dasharray="6 6"/>
<path d="M245.469 28.6455L245.707 28.2059L245.596 28.1455H245.469V28.6455ZM279.735 47.2061V47.7061L279.973 46.7664L279.735 47.2061ZM67.0005 47.2061L66.7623 47.6457L66.8738 47.7061H67.0005V47.2061ZM32.7349 28.6455V28.1455L32.4967 29.0852L32.7349 28.6455ZM242.515 28.1455H242.015V29.1455H242.515V28.6455V28.1455ZM236.605 29.1455H237.105V28.1455H236.605V28.6455V29.1455ZM230.696 28.1455H230.196V29.1455H230.696V28.6455V28.1455ZM224.787 29.1455H225.287V28.1455H224.787V28.6455V29.1455ZM218.877 28.1455H218.377V29.1455H218.877V28.6455V28.1455ZM212.968 29.1455H213.468V28.1455H212.968V28.6455V29.1455ZM207.059 28.1455H206.559V29.1455H207.059V28.6455V28.1455ZM201.15 29.1455H201.65V28.1455H201.15V28.6455V29.1455ZM195.24 28.1455H194.74V29.1455H195.24V28.6455V28.1455ZM189.331 29.1455H189.831V28.1455H189.331V28.6455V29.1455ZM183.422 28.1455H182.922V29.1455H183.422V28.6455V28.1455ZM177.512 29.1455H178.012V28.1455H177.512V28.6455V29.1455ZM171.603 28.1455H171.103V29.1455H171.603V28.6455V28.1455ZM165.694 29.1455H166.194V28.1455H165.694V28.6455V29.1455ZM159.785 28.1455H159.285V29.1455H159.785V28.6455V28.1455ZM153.875 29.1455H154.375V28.1455H153.875V28.6455V29.1455ZM147.966 28.1455H147.466V29.1455H147.966V28.6455V28.1455ZM142.057 29.1455H142.557V28.1455H142.057V28.6455V29.1455ZM136.147 28.1455H135.647V29.1455H136.147V28.6455V28.1455ZM130.238 29.1455H130.738V28.1455H130.238V28.6455V29.1455ZM124.329 28.1455H123.829V29.1455H124.329V28.6455V28.1455ZM118.42 29.1455H118.92V28.1455H118.42V28.6455V29.1455ZM112.51 28.1455H112.01V29.1455H112.51V28.6455V28.1455ZM106.601 29.1455H107.101V28.1455H106.601V28.6455V29.1455ZM100.692 28.1455H100.192V29.1455H100.692V28.6455V28.1455ZM94.7824 29.1455H95.2824V28.1455H94.7824V28.6455V29.1455ZM88.8731 28.1455H88.3731V29.1455H88.8731V28.6455V28.1455ZM82.9638 29.1455H83.4638V28.1455H82.9638V28.6455V29.1455ZM77.0545 28.1455H76.5545V29.1455H77.0545V28.6455V28.1455ZM71.1453 29.1455H71.6453V28.1455H71.1453V28.6455V29.1455ZM65.236 28.1455H64.736V29.1455H65.236V28.6455V28.1455ZM59.3267 29.1455H59.8267V28.1455H59.3267V28.6455V29.1455ZM53.4174 28.1455H52.9174V29.1455H53.4174V28.6455V28.1455ZM47.5081 29.1455H48.0081V28.1455H47.5081V28.6455V29.1455ZM41.5988 28.1455H41.0988V29.1455H41.5988V28.6455V28.1455ZM35.6895 29.1455H36.1895V28.1455H35.6895V28.6455V29.1455ZM35.3522 30.6319L35.7918 30.87L36.2681 29.9907L35.8285 29.7526L35.5903 30.1922L35.3522 30.6319ZM41.5394 32.846L41.0998 32.6079L40.6235 33.4871L41.0631 33.7253L41.3013 33.2856L41.5394 32.846ZM46.7741 36.8187L47.2137 37.0569L47.69 36.1776L47.2503 35.9394L47.0122 36.3791L46.7741 36.8187ZM52.9613 39.0328L52.5216 38.7947L52.0454 39.674L52.485 39.9121L52.7231 39.4725L52.9613 39.0328ZM58.1959 43.0056L58.6356 43.2437L59.1119 42.3644L58.6722 42.1263L58.4341 42.5659L58.1959 43.0056ZM64.3832 45.2197L63.9435 44.9816L63.4672 45.8608L63.9069 46.099L64.145 45.6593L64.3832 45.2197ZM69.9551 47.7061H70.4551V46.7061H69.9551V47.2061V47.7061ZM75.8644 46.7061H75.3644V47.7061H75.8644V47.2061V46.7061ZM81.7737 47.7061H82.2737V46.7061H81.7737V47.2061V47.7061ZM87.683 46.7061H87.183V47.7061H87.683V47.2061V46.7061ZM93.5923 47.7061H94.0923V46.7061H93.5923V47.2061V47.7061ZM99.5016 46.7061H99.0016V47.7061H99.5016V47.2061V46.7061ZM105.411 47.7061H105.911V46.7061H105.411V47.2061V47.7061ZM111.32 46.7061H110.82V47.7061H111.32V47.2061V46.7061ZM117.229 47.7061H117.729V46.7061H117.229V47.2061V47.7061ZM123.139 46.7061H122.639V47.7061H123.139V47.2061V46.7061ZM129.048 47.7061H129.548V46.7061H129.048V47.2061V47.7061ZM134.957 46.7061H134.457V47.7061H134.957V47.2061V46.7061ZM140.867 47.7061H141.367V46.7061H140.867V47.2061V47.7061ZM146.776 46.7061H146.276V47.7061H146.776V47.2061V46.7061ZM152.685 47.7061H153.185V46.7061H152.685V47.2061V47.7061ZM158.594 46.7061H158.094V47.7061H158.594V47.2061V46.7061ZM164.504 47.7061H165.004V46.7061H164.504V47.2061V47.7061ZM170.413 46.7061H169.913V47.7061H170.413V47.2061V46.7061ZM176.322 47.7061H176.822V46.7061H176.322V47.2061V47.7061ZM182.232 46.7061H181.732V47.7061H182.232V47.2061V46.7061ZM188.141 47.7061H188.641V46.7061H188.141V47.2061V47.7061ZM194.05 46.7061H193.55V47.7061H194.05V47.2061V46.7061ZM199.959 47.7061H200.459V46.7061H199.959V47.2061V47.7061ZM205.869 46.7061H205.369V47.7061H205.869V47.2061V46.7061ZM211.778 47.7061H212.278V46.7061H211.778V47.2061V47.7061ZM217.687 46.7061H217.187V47.7061H217.687V47.2061V46.7061ZM223.597 47.7061H224.097V46.7061H223.597V47.2061V47.7061ZM229.506 46.7061H229.006V47.7061H229.506V47.2061V46.7061ZM235.415 47.7061H235.915V46.7061H235.415V47.2061V47.7061ZM241.324 46.7061H240.824V47.7061H241.324V47.2061V46.7061ZM247.234 47.7061H247.734V46.7061H247.234V47.2061V47.7061ZM253.143 46.7061H252.643V47.7061H253.143V47.2061V46.7061ZM259.052 47.7061H259.552V46.7061H259.052V47.2061V47.7061ZM264.962 46.7061H264.462V47.7061H264.962V47.2061V46.7061ZM270.871 47.7061H271.371V46.7061H270.871V47.2061V47.7061ZM276.78 46.7061H276.28V47.7061H276.78V47.2061V46.7061ZM277.118 45.2197L276.678 44.9816L276.202 45.8608L276.641 46.099L276.879 45.6593L277.118 45.2197ZM270.93 43.0056L271.37 43.2437L271.846 42.3644L271.407 42.1263L271.168 42.5659L270.93 43.0056ZM265.696 39.0328L265.256 38.7947L264.78 39.674L265.219 39.9121L265.458 39.4725L265.696 39.0328ZM259.508 36.8187L259.948 37.0569L260.424 36.1776L259.985 35.9394L259.747 36.3791L259.508 36.8187ZM254.274 32.846L253.834 32.6079L253.358 33.4871L253.798 33.7253L254.036 33.2856L254.274 32.846ZM248.087 30.6319L248.526 30.87L249.002 29.9907L248.563 29.7526L248.325 30.1922L248.087 30.6319ZM245.469 28.6455V28.1455H242.515V28.6455V29.1455H245.469V28.6455ZM236.605 28.6455V28.1455H230.696V28.6455V29.1455H236.605V28.6455ZM224.787 28.6455V28.1455H218.877V28.6455V29.1455H224.787V28.6455ZM212.968 28.6455V28.1455H207.059V28.6455V29.1455H212.968V28.6455ZM201.15 28.6455V28.1455H195.24V28.6455V29.1455H201.15V28.6455ZM189.331 28.6455V28.1455H183.422V28.6455V29.1455H189.331V28.6455ZM177.512 28.6455V28.1455H171.603V28.6455V29.1455H177.512V28.6455ZM165.694 28.6455V28.1455H159.785V28.6455V29.1455H165.694V28.6455ZM153.875 28.6455V28.1455H147.966V28.6455V29.1455H153.875V28.6455ZM142.057 28.6455V28.1455H136.147V28.6455V29.1455H142.057V28.6455ZM130.238 28.6455V28.1455H124.329V28.6455V29.1455H130.238V28.6455ZM118.42 28.6455V28.1455H112.51V28.6455V29.1455H118.42V28.6455ZM106.601 28.6455V28.1455H100.692V28.6455V29.1455H106.601V28.6455ZM94.7824 28.6455V28.1455H88.8731V28.6455V29.1455H94.7824V28.6455ZM82.9638 28.6455V28.1455H77.0545V28.6455V29.1455H82.9638V28.6455ZM71.1453 28.6455V28.1455H65.236V28.6455V29.1455H71.1453V28.6455ZM59.3267 28.6455V28.1455H53.4174V28.6455V29.1455H59.3267V28.6455ZM47.5081 28.6455V28.1455H41.5988V28.6455V29.1455H47.5081V28.6455ZM35.6895 28.6455V28.1455H32.7349V28.6455V29.1455H35.6895V28.6455ZM32.7349 28.6455L32.4967 29.0852L35.3522 30.6319L35.5903 30.1922L35.8285 29.7526L32.973 28.2059L32.7349 28.6455ZM41.3013 33.2856L41.0631 33.7253L46.7741 36.8187L47.0122 36.3791L47.2503 35.9394L41.5394 32.846L41.3013 33.2856ZM52.7231 39.4725L52.485 39.9121L58.1959 43.0056L58.4341 42.5659L58.6722 42.1263L52.9613 39.0328L52.7231 39.4725ZM64.145 45.6593L63.9069 46.099L66.7623 47.6457L67.0005 47.2061L67.2386 46.7664L64.3832 45.2197L64.145 45.6593ZM67.0005 47.2061V47.7061H69.9551V47.2061V46.7061H67.0005V47.2061ZM75.8644 47.2061V47.7061H81.7737V47.2061V46.7061H75.8644V47.2061ZM87.683 47.2061V47.7061H93.5923V47.2061V46.7061H87.683V47.2061ZM99.5016 47.2061V47.7061H105.411V47.2061V46.7061H99.5016V47.2061ZM111.32 47.2061V47.7061H117.229V47.2061V46.7061H111.32V47.2061ZM123.139 47.2061V47.7061H129.048V47.2061V46.7061H123.139V47.2061ZM134.957 47.2061V47.7061H140.867V47.2061V46.7061H134.957V47.2061ZM146.776 47.2061V47.7061H152.685V47.2061V46.7061H146.776V47.2061ZM158.594 47.2061V47.7061H164.504V47.2061V46.7061H158.594V47.2061ZM170.413 47.2061V47.7061H176.322V47.2061V46.7061H170.413V47.2061ZM182.232 47.2061V47.7061H188.141V47.2061V46.7061H182.232V47.2061ZM194.05 47.2061V47.7061H199.959V47.2061V46.7061H194.05V47.2061ZM205.869 47.2061V47.7061H211.778V47.2061V46.7061H205.869V47.2061ZM217.687 47.2061V47.7061H223.597V47.2061V46.7061H217.687V47.2061ZM229.506 47.2061V47.7061H235.415V47.2061V46.7061H229.506V47.2061ZM241.324 47.2061V47.7061H247.234V47.2061V46.7061H241.324V47.2061ZM253.143 47.2061V47.7061H259.052V47.2061V46.7061H253.143V47.2061ZM264.962 47.2061V47.7061H270.871V47.2061V46.7061H264.962V47.2061ZM276.78 47.2061V47.7061H279.735V47.2061V46.7061H276.78V47.2061ZM279.735 47.2061L279.973 46.7664L277.118 45.2197L276.879 45.6593L276.641 46.099L279.497 47.6457L279.735 47.2061ZM271.168 42.5659L271.407 42.1263L265.696 39.0328L265.458 39.4725L265.219 39.9121L270.93 43.0056L271.168 42.5659ZM259.747 36.3791L259.985 35.9394L254.274 32.846L254.036 33.2856L253.798 33.7253L259.508 36.8187L259.747 36.3791ZM248.325 30.1922L248.563 29.7526L245.707 28.2059L245.469 28.6455L245.231 29.0852L248.087 30.6319L248.325 30.1922Z" fill="#F0EEE6"/>
<path d="M244.72 182.726L244.998 182.31L244.997 182.309L244.72 182.726ZM246.056 183.616L245.779 184.032L246.046 184.21L246.319 184.041L246.056 183.616ZM247.421 182.771L247.158 182.346L247.158 182.346L247.421 182.771ZM254.016 178.691L254.325 178.299L254.051 178.082L253.753 178.266L254.016 178.691ZM258.993 182.609L259.302 182.217L259.302 182.217L258.993 182.609ZM260.704 183.957L260.394 184.35L260.736 184.619L261.05 184.317L260.704 183.957ZM262.273 182.447L262.62 182.808L262.62 182.807L262.273 182.447ZM262.602 182.13H263.102V180.953L262.255 181.77L262.602 182.13ZM262.602 242.808V243.308H263.102V242.808H262.602ZM212.723 242.808H212.223V243.308H212.723V242.808ZM212.723 181.18L213.032 180.787L212.223 180.149V181.18H212.723ZM214.539 182.609L214.848 182.217L214.848 182.217L214.539 182.609ZM215.963 183.731L215.654 184.124L215.939 184.349L216.241 184.147L215.963 183.731ZM217.471 182.726L217.194 182.309L217.194 182.31L217.471 182.726ZM223.59 178.648L223.868 178.232L223.59 178.048L223.313 178.232L223.59 178.648ZM229.709 182.726L229.987 182.31L229.987 182.309L229.709 182.726ZM231.095 183.649L230.818 184.065L231.095 184.25L231.372 184.066L231.095 183.649ZM232.482 182.726L232.759 183.142L232.759 183.142L232.482 182.726ZM238.6 178.648L238.877 178.232L238.6 178.048L238.323 178.232L238.6 178.648ZM262.602 175.189L262.949 175.55L263.102 175.402V175.189H262.602ZM260.374 177.334L260.064 177.727L260.406 177.996L260.72 177.694L260.374 177.334ZM255.735 173.682L255.426 174.074L255.426 174.074L255.735 173.682ZM254.361 172.6L254.67 172.207L254.395 171.99L254.098 172.174L254.361 172.6ZM252.874 173.52L253.137 173.945L253.137 173.945L252.874 173.52ZM246.155 177.675L245.878 178.091L246.145 178.269L246.418 178.1L246.155 177.675ZM239.987 173.565L239.709 173.981L239.71 173.982L239.987 173.565ZM238.601 172.642L238.878 172.226L238.601 172.041L238.324 172.225L238.601 172.642ZM237.214 173.565L237.492 173.982L237.492 173.982L237.214 173.565ZM231.095 177.642L230.818 178.058L231.095 178.242L231.372 178.058L231.095 177.642ZM224.977 173.565L225.254 173.149L225.254 173.149L224.977 173.565ZM223.59 172.642L223.868 172.225L223.59 172.041L223.313 172.226L223.59 172.642ZM222.205 173.565L222.482 173.982L222.482 173.981L222.205 173.565ZM216.208 177.56L215.898 177.952L216.183 178.177L216.485 177.976L216.208 177.56ZM212.723 174.816H212.223V175.059L212.414 175.209L212.723 174.816ZM212.723 162.646V162.146H212.223V162.646H212.723ZM262.602 162.646H263.102V162.146H262.602V162.646ZM243.467 181.29L243.051 181.013L242.497 181.845L242.913 182.122L243.19 181.706L243.467 181.29ZM239.853 180.084L240.269 180.361L240.823 179.529L240.407 179.252L240.13 179.668L239.853 180.084ZM236.793 179.252L236.377 179.529L236.932 180.361L237.348 180.084L237.071 179.668L236.793 179.252ZM234.289 182.122L234.705 181.845L234.15 181.013L233.734 181.29L234.011 181.706L234.289 182.122ZM231.858 182.54L231.442 182.818L231.996 183.65L232.412 183.373L232.135 182.957L231.858 182.54ZM231.719 183.835L232.135 183.557L231.581 182.725L231.165 183.002L231.442 183.418L231.719 183.835ZM231.026 183.002L230.61 182.725L230.055 183.557L230.471 183.834L230.749 183.418L231.026 183.002ZM229.779 183.373L230.195 183.65L230.749 182.818L230.333 182.541L230.056 182.957L229.779 183.373ZM228.457 181.29L228.041 181.013L227.486 181.845L227.902 182.122L228.18 181.706L228.457 181.29ZM224.843 180.084L225.259 180.361L225.813 179.529L225.397 179.252L225.12 179.668L224.843 180.084ZM221.783 179.252L221.367 179.529L221.922 180.361L222.338 180.084L222.061 179.668L221.783 179.252ZM219.278 182.122L219.694 181.845L219.14 181.013L218.724 181.29L219.001 181.706L219.278 182.122ZM216.817 182.561L216.401 182.839L216.956 183.67L217.372 183.393L217.094 182.977L216.817 182.561ZM216.618 183.896L217.034 183.618L216.479 182.787L216.063 183.064L216.34 183.48L216.618 183.896ZM215.917 183.058L215.524 182.749L214.905 183.534L215.298 183.844L215.607 183.451L215.917 183.058ZM214.585 183.283L214.978 183.592L215.597 182.806L215.204 182.497L214.895 182.89L214.585 183.283ZM214.394 181.859L214.001 181.55L213.383 182.335L213.775 182.645L214.085 182.252L214.394 181.859ZM212.868 181.93L213.26 182.239L213.879 181.454L213.486 181.144L213.177 181.537L212.868 181.93ZM212.223 184.261V184.761H213.223V184.261H212.723H212.223ZM213.223 190.424V189.924H212.223V190.424H212.723H213.223ZM212.223 196.587V197.087H213.223V196.587H212.723H212.223ZM213.223 202.749V202.249H212.223V202.749H212.723H213.223ZM212.223 208.912V209.412H213.223V208.912H212.723H212.223ZM213.223 215.075V214.575H212.223V215.075H212.723H213.223ZM212.223 221.238V221.738H213.223V221.238H212.723H212.223ZM213.223 227.401V226.901H212.223V227.401H212.723H213.223ZM212.223 233.563V234.063H213.223V233.563H212.723H212.223ZM213.223 239.726V239.226H212.223V239.726H212.723H213.223ZM215.841 243.308H216.341V242.308H215.841V242.808V243.308ZM222.075 242.308H221.575V243.308H222.075V242.808V242.308ZM228.31 243.308H228.81V242.308H228.31V242.808V243.308ZM234.545 242.308H234.045V243.308H234.545V242.808V242.308ZM240.78 243.308H241.28V242.308H240.78V242.808V243.308ZM247.015 242.308H246.515V243.308H247.015V242.808V242.308ZM253.25 243.308H253.75V242.308H253.25V242.808V243.308ZM259.485 242.308H258.985V243.308H259.485V242.808V242.308ZM263.102 239.774V239.274H262.102V239.774H262.602H263.102ZM262.102 233.706V234.206H263.102V233.706H262.602H262.102ZM263.102 227.638V227.138H262.102V227.638H262.602H263.102ZM262.102 221.57V222.07H263.102V221.57H262.602H262.102ZM263.102 215.503V215.003H262.102V215.503H262.602H263.102ZM262.102 209.435V209.935H263.102V209.435H262.602H262.102ZM263.102 203.367V202.867H262.102V203.367H262.602H263.102ZM262.102 197.299V197.799H263.102V197.299H262.602H262.102ZM263.102 191.232V190.732H262.102V191.232H262.602H263.102ZM262.102 185.164V185.664H263.102V185.164H262.602H262.102ZM262.173 181.849L261.813 182.196L262.507 182.916L262.867 182.569L262.52 182.209L262.173 181.849ZM262.702 182.728L263.062 182.381L262.368 181.661L262.008 182.008L262.355 182.368L262.702 182.728ZM261.534 182.464L261.174 182.811L261.867 183.532L262.227 183.185L261.881 182.825L261.534 182.464ZM261.443 183.94L261.803 183.593L261.11 182.873L260.749 183.219L261.096 183.58L261.443 183.94ZM260.585 183.227L260.192 182.918L259.574 183.704L259.966 184.013L260.276 183.62L260.585 183.227ZM259.111 183.339L259.504 183.648L260.123 182.863L259.73 182.554L259.42 182.946L259.111 183.339ZM258.058 181.237L257.665 180.928L257.046 181.713L257.439 182.023L257.749 181.63L258.058 181.237ZM254.951 180.064L255.344 180.373L255.962 179.587L255.57 179.278L255.26 179.671L254.951 180.064ZM252.104 179.286L251.679 179.549L252.205 180.4L252.63 180.137L252.367 179.711L252.104 179.286ZM249.333 182.177L249.758 181.914L249.232 181.063L248.807 181.326L249.07 181.751L249.333 182.177ZM246.817 182.557L246.392 182.821L246.918 183.671L247.343 183.408L247.08 182.983L246.817 182.557ZM246.661 183.83L247.086 183.567L246.56 182.717L246.134 182.98L246.397 183.405L246.661 183.83ZM246 182.978L245.583 182.7L245.029 183.532L245.445 183.81L245.722 183.394L246 182.978ZM244.777 183.364L245.193 183.642L245.748 182.81L245.332 182.532L245.054 182.948L244.777 183.364ZM261.698 175.365L261.338 175.712L262.031 176.433L262.392 176.086L262.045 175.726L261.698 175.365ZM261.277 177.158L261.638 176.811L260.944 176.091L260.584 176.438L260.931 176.798L261.277 177.158ZM259.523 176.028L259.13 175.719L258.512 176.504L258.905 176.814L259.214 176.421L259.523 176.028ZM256.585 174.988L256.978 175.297L257.597 174.511L257.204 174.202L256.895 174.595L256.585 174.988ZM255.701 173.018L255.308 172.709L254.689 173.495L255.082 173.804L255.391 173.411L255.701 173.018ZM254.395 173.263L254.788 173.572L255.407 172.787L255.014 172.477L254.704 172.87L254.395 173.263ZM253.726 172.404L253.301 172.667L253.827 173.518L254.252 173.255L253.989 172.83L253.726 172.404ZM253.508 173.715L253.934 173.452L253.408 172.601L252.982 172.864L253.245 173.29L253.508 173.715ZM250.931 174.133L250.506 174.396L251.032 175.247L251.457 174.984L251.194 174.558L250.931 174.133ZM248.097 177.061L248.523 176.798L247.997 175.948L247.571 176.211L247.834 176.636L248.097 177.061ZM244.89 176.231L244.474 175.954L243.919 176.786L244.336 177.064L244.613 176.647L244.89 176.231ZM241.252 175.009L241.668 175.286L242.222 174.454L241.806 174.177L241.529 174.593L241.252 175.009ZM239.918 172.918L239.502 172.641L238.947 173.473L239.363 173.75L239.64 173.334L239.918 172.918ZM238.67 173.289L239.086 173.566L239.641 172.734L239.225 172.457L238.948 172.873L238.67 173.289ZM237.977 172.456L237.561 172.734L238.115 173.566L238.532 173.289L238.254 172.873L237.977 172.456ZM237.838 173.751L238.254 173.473L237.7 172.641L237.284 172.918L237.561 173.334L237.838 173.751ZM235.407 174.168L234.991 174.446L235.546 175.278L235.962 175.001L235.685 174.584L235.407 174.168ZM232.902 177.039L233.318 176.761L232.764 175.929L232.348 176.206L232.625 176.623L232.902 177.039ZM229.843 176.206L229.427 175.929L228.872 176.761L229.288 177.039L229.566 176.623L229.843 176.206ZM226.229 175.001L226.645 175.278L227.2 174.446L226.784 174.168L226.507 174.584L226.229 175.001ZM224.908 172.918L224.491 172.641L223.937 173.473L224.353 173.751L224.63 173.334L224.908 172.918ZM223.66 173.289L224.076 173.566L224.63 172.734L224.214 172.456L223.937 172.873L223.66 173.289ZM222.967 172.457L222.551 172.734L223.105 173.566L223.521 173.289L223.244 172.873L222.967 172.457ZM222.828 173.75L223.244 173.473L222.69 172.641L222.274 172.918L222.551 173.334L222.828 173.75ZM220.428 174.148L220.012 174.425L220.566 175.257L220.982 174.98L220.705 174.564L220.428 174.148ZM217.984 176.977L218.4 176.7L217.846 175.868L217.43 176.145L217.707 176.561L217.984 176.977ZM215.646 176.481L215.253 176.172L214.634 176.957L215.027 177.267L215.336 176.874L215.646 176.481ZM213.285 175.895L213.678 176.204L214.296 175.419L213.904 175.109L213.594 175.502L213.285 175.895ZM213.223 171.774V171.274H212.223V171.774H212.723H213.223ZM212.223 165.688V166.188H213.223V165.688H212.723H212.223ZM215.841 163.146H216.341V162.146H215.841V162.646V163.146ZM222.075 162.146H221.575V163.146H222.075V162.646V162.146ZM228.31 163.146H228.81V162.146H228.31V162.646V163.146ZM234.545 162.146H234.045V163.146H234.545V162.646V162.146ZM240.78 163.146H241.28V162.146H240.78V162.646V163.146ZM247.015 162.146H246.515V163.146H247.015V162.646V162.146ZM253.25 163.146H253.75V162.146H253.25V162.646V163.146ZM259.485 162.146H258.985V163.146H259.485V162.646V162.146ZM262.102 165.781V166.281H263.102V165.781H262.602H262.102ZM263.102 172.053V171.553H262.102V172.053H262.602H263.102ZM244.72 182.726L244.997 182.309L243.467 181.29L243.19 181.706L242.913 182.122L244.443 183.142L244.72 182.726ZM240.13 179.668L240.407 179.252L238.877 178.232L238.6 178.648L238.323 179.065L239.853 180.084L240.13 179.668ZM238.6 178.648L238.323 178.232L236.793 179.252L237.071 179.668L237.348 180.084L238.877 179.065L238.6 178.648ZM234.011 181.706L233.734 181.29L232.205 182.31L232.482 182.726L232.759 183.142L234.289 182.122L234.011 181.706ZM232.482 182.726L232.205 182.309L231.858 182.54L232.135 182.957L232.412 183.373L232.759 183.142L232.482 182.726ZM231.442 183.418L231.165 183.002L230.818 183.233L231.095 183.649L231.372 184.066L231.719 183.835L231.442 183.418ZM231.095 183.649L231.373 183.233L231.026 183.002L230.749 183.418L230.471 183.834L230.818 184.065L231.095 183.649ZM230.056 182.957L230.333 182.541L229.987 182.31L229.709 182.726L229.432 183.142L229.779 183.373L230.056 182.957ZM229.709 182.726L229.987 182.309L228.457 181.29L228.18 181.706L227.902 182.122L229.432 183.142L229.709 182.726ZM225.12 179.668L225.397 179.252L223.868 178.232L223.59 178.648L223.313 179.065L224.843 180.084L225.12 179.668ZM223.59 178.648L223.313 178.232L221.783 179.252L222.061 179.668L222.338 180.084L223.868 179.065L223.59 178.648ZM219.001 181.706L218.724 181.29L217.194 182.309L217.471 182.726L217.748 183.142L219.278 182.122L219.001 181.706ZM217.471 182.726L217.194 182.31L216.817 182.561L217.094 182.977L217.372 183.393L217.749 183.142L217.471 182.726ZM216.34 183.48L216.063 183.064L215.686 183.316L215.963 183.731L216.241 184.147L216.618 183.896L216.34 183.48ZM215.963 183.731L216.273 183.339L215.917 183.058L215.607 183.451L215.298 183.844L215.654 184.124L215.963 183.731ZM214.895 182.89L215.204 182.497L214.848 182.217L214.539 182.609L214.229 183.002L214.585 183.283L214.895 182.89ZM214.539 182.609L214.848 182.217L214.394 181.859L214.085 182.252L213.775 182.645L214.229 183.002L214.539 182.609ZM213.177 181.537L213.486 181.144L213.032 180.787L212.723 181.18L212.414 181.573L212.868 181.93L213.177 181.537ZM212.723 181.18H212.223V184.261H212.723H213.223V181.18H212.723ZM212.723 190.424H212.223V196.587H212.723H213.223V190.424H212.723ZM212.723 202.749H212.223V208.912H212.723H213.223V202.749H212.723ZM212.723 215.075H212.223V221.238H212.723H213.223V215.075H212.723ZM212.723 227.401H212.223V233.563H212.723H213.223V227.401H212.723ZM212.723 239.726H212.223V242.808H212.723H213.223V239.726H212.723ZM212.723 242.808V243.308H215.841V242.808V242.308H212.723V242.808ZM222.075 242.808V243.308H228.31V242.808V242.308H222.075V242.808ZM234.545 242.808V243.308H240.78V242.808V242.308H234.545V242.808ZM247.015 242.808V243.308H253.25V242.808V242.308H247.015V242.808ZM259.485 242.808V243.308H262.602V242.808V242.308H259.485V242.808ZM262.602 242.808H263.102V239.774H262.602H262.102V242.808H262.602ZM262.602 233.706H263.102V227.638H262.602H262.102V233.706H262.602ZM262.602 221.57H263.102V215.503H262.602H262.102V221.57H262.602ZM262.602 209.435H263.102V203.367H262.602H262.102V209.435H262.602ZM262.602 197.299H263.102V191.232H262.602H262.102V197.299H262.602ZM262.602 185.164H263.102V182.13H262.602H262.102V185.164H262.602ZM262.602 182.13L262.255 181.77L262.173 181.849L262.52 182.209L262.867 182.569L262.949 182.49L262.602 182.13ZM262.355 182.368L262.008 182.008L261.926 182.087L262.273 182.447L262.62 182.807L262.702 182.728L262.355 182.368ZM262.273 182.447L261.926 182.087L261.534 182.464L261.881 182.825L262.227 183.185L262.62 182.808L262.273 182.447ZM261.096 183.58L260.749 183.219L260.357 183.597L260.704 183.957L261.05 184.317L261.443 183.94L261.096 183.58ZM260.704 183.957L261.013 183.564L260.585 183.227L260.276 183.62L259.966 184.013L260.394 184.35L260.704 183.957ZM259.42 182.946L259.73 182.554L259.302 182.217L258.993 182.609L258.683 183.002L259.111 183.339L259.42 182.946ZM258.993 182.609L259.302 182.217L258.058 181.237L257.749 181.63L257.439 182.023L258.683 183.002L258.993 182.609ZM255.26 179.671L255.57 179.278L254.325 178.299L254.016 178.691L253.707 179.084L254.951 180.064L255.26 179.671ZM254.016 178.691L253.753 178.266L252.104 179.286L252.367 179.711L252.63 180.137L254.279 179.117L254.016 178.691ZM249.07 181.751L248.807 181.326L247.158 182.346L247.421 182.771L247.684 183.197L249.333 182.177L249.07 181.751ZM247.421 182.771L247.158 182.346L246.817 182.557L247.08 182.983L247.343 183.408L247.684 183.197L247.421 182.771ZM246.397 183.405L246.134 182.98L245.793 183.191L246.056 183.616L246.319 184.041L246.661 183.83L246.397 183.405ZM246.056 183.616L246.334 183.2L246 182.978L245.722 183.394L245.445 183.81L245.779 184.032L246.056 183.616ZM245.054 182.948L245.332 182.532L244.998 182.31L244.72 182.726L244.443 183.142L244.777 183.364L245.054 182.948ZM262.602 175.189L262.255 174.829L261.698 175.365L262.045 175.726L262.392 176.086L262.949 175.55L262.602 175.189ZM260.931 176.798L260.584 176.438L260.027 176.974L260.374 177.334L260.72 177.694L261.277 177.158L260.931 176.798ZM260.374 177.334L260.683 176.941L259.523 176.028L259.214 176.421L258.905 176.814L260.064 177.727L260.374 177.334ZM256.895 174.595L257.204 174.202L256.044 173.289L255.735 173.682L255.426 174.074L256.585 174.988L256.895 174.595ZM255.735 173.682L256.044 173.289L255.701 173.018L255.391 173.411L255.082 173.804L255.426 174.074L255.735 173.682ZM254.704 172.87L255.014 172.477L254.67 172.207L254.361 172.6L254.051 172.992L254.395 173.263L254.704 172.87ZM254.361 172.6L254.098 172.174L253.726 172.404L253.989 172.83L254.252 173.255L254.624 173.025L254.361 172.6ZM253.245 173.29L252.982 172.864L252.611 173.094L252.874 173.52L253.137 173.945L253.508 173.715L253.245 173.29ZM252.874 173.52L252.611 173.094L250.931 174.133L251.194 174.558L251.457 174.984L253.137 173.945L252.874 173.52ZM247.834 176.636L247.571 176.211L245.892 177.25L246.155 177.675L246.418 178.1L248.097 177.061L247.834 176.636ZM246.155 177.675L246.432 177.259L244.89 176.231L244.613 176.647L244.336 177.064L245.878 178.091L246.155 177.675ZM241.529 174.593L241.806 174.177L240.264 173.149L239.987 173.565L239.71 173.982L241.252 175.009L241.529 174.593ZM239.987 173.565L240.264 173.149L239.918 172.918L239.64 173.334L239.363 173.75L239.709 173.981L239.987 173.565ZM238.948 172.873L239.225 172.457L238.878 172.226L238.601 172.642L238.324 173.058L238.67 173.289L238.948 172.873ZM238.601 172.642L238.324 172.225L237.977 172.456L238.254 172.873L238.532 173.289L238.878 173.058L238.601 172.642ZM237.561 173.334L237.284 172.918L236.937 173.149L237.214 173.565L237.492 173.982L237.838 173.751L237.561 173.334ZM237.214 173.565L236.937 173.149L235.407 174.168L235.685 174.584L235.962 175.001L237.492 173.982L237.214 173.565ZM232.625 176.623L232.348 176.206L230.818 177.225L231.095 177.642L231.372 178.058L232.902 177.039L232.625 176.623ZM231.095 177.642L231.372 177.225L229.843 176.206L229.566 176.623L229.288 177.039L230.818 178.058L231.095 177.642ZM226.507 174.584L226.784 174.168L225.254 173.149L224.977 173.565L224.7 173.982L226.229 175.001L226.507 174.584ZM224.977 173.565L225.254 173.149L224.908 172.918L224.63 173.334L224.353 173.751L224.7 173.982L224.977 173.565ZM223.937 172.873L224.214 172.456L223.868 172.225L223.59 172.642L223.313 173.058L223.66 173.289L223.937 172.873ZM223.59 172.642L223.313 172.226L222.967 172.457L223.244 172.873L223.521 173.289L223.868 173.058L223.59 172.642ZM222.551 173.334L222.274 172.918L221.927 173.149L222.205 173.565L222.482 173.981L222.828 173.75L222.551 173.334ZM222.205 173.565L221.927 173.149L220.428 174.148L220.705 174.564L220.982 174.98L222.482 173.982L222.205 173.565ZM217.707 176.561L217.43 176.145L215.93 177.143L216.208 177.56L216.485 177.976L217.984 176.977L217.707 176.561ZM216.208 177.56L216.517 177.167L215.646 176.481L215.336 176.874L215.027 177.267L215.898 177.952L216.208 177.56ZM213.594 175.502L213.904 175.109L213.032 174.424L212.723 174.816L212.414 175.209L213.285 175.895L213.594 175.502ZM212.723 174.816H213.223V171.774H212.723H212.223V174.816H212.723ZM212.723 165.688H213.223V162.646H212.723H212.223V165.688H212.723ZM212.723 162.646V163.146H215.841V162.646V162.146H212.723V162.646ZM222.075 162.646V163.146H228.31V162.646V162.146H222.075V162.646ZM234.545 162.646V163.146H240.78V162.646V162.146H234.545V162.646ZM247.015 162.646V163.146H253.25V162.646V162.146H247.015V162.646ZM259.485 162.646V163.146H262.602V162.646V162.146H259.485V162.646ZM262.602 162.646H262.102V165.781H262.602H263.102V162.646H262.602ZM262.602 172.053H262.102V175.189H262.602H263.102V172.053H262.602Z" fill="#F0EEE6"/>
<rect width="144.292" height="144.292" rx="72.1462" fill="#F0EEE6"/>
<path d="M67.2201 47.3701V144.293C54.6409 143.445 42.9462 139.373 32.9545 132.896V28.8135L67.2201 47.3701Z" fill="#AAAAAA"/>
<path d="M139.865 47.2061C142.728 54.9786 144.292 63.3799 144.292 72.1465C144.292 111.992 111.991 144.293 72.1459 144.293C70.4903 144.293 68.8479 144.235 67.2201 144.125V47.2061H139.865Z" fill="#EDEDED"/>
<path d="M129.706 28.8135C133.949 34.4181 137.391 40.6614 139.865 47.374H67.2201L32.9545 28.8135H129.706Z" fill="#D9D9D9"/>
</svg>
