<svg width="448" height="75" viewBox="0 0 448 75" fill="none" xmlns="http://www.w3.org/2000/svg">
<path d="M272.962 27.7334C271.021 28.9294 269.078 30.1241 267.136 31.3184L266.149 31.9248C265.477 32.3381 188.449 43.669 187.767 44.084C239.06 37.9961 321.67 27.1641 386.188 19.0752C344.892 30.7876 304.289 44.3071 264.38 59.6318C260.666 61.0581 256.959 62.5029 253.259 63.9668C237.052 65.3395 220.2 66.7752 202.261 68.3252L133.67 75L187.767 44.084C193.71 40.7895 209.551 34.2891 215.5 31C212.965 31.1432 200.536 34.492 198 34.6299C179.582 35.6315 161.14 36.4979 142.686 37.2979C170.708 29.3078 198.346 20.315 225.599 10.3213C234.321 9.21272 243.051 8.14237 251.789 7.12012C254.606 6.79055 257.424 6.46197 260.241 6.13379L319.625 0L272.962 27.7334ZM189.943 49.0234L189 49.1309L190.728 64L194.097 63.6172L203.468 62.5566L203.119 59.5605L193.749 60.6221L193.401 57.626L202.435 56.6025L202.089 53.6289L193.056 54.6514L192.718 51.7441L202.089 50.6826L201.74 47.6865L189.943 49.0234ZM214.808 46.7461C213.898 46.4895 212.82 46.4314 211.577 46.5723L203.263 47.5146L204.99 62.3838L208.36 62.002L207.734 56.6094L209.959 56.3564C210.543 56.2903 211.014 56.29 211.37 56.3545C211.74 56.4025 212.05 56.5243 212.301 56.7207C212.551 56.9172 212.803 57.1967 213.058 57.5576L215.573 61.1846L219.483 60.7412L216.84 56.9941C216.495 56.5086 216.137 56.1068 215.767 55.7891C215.396 55.4713 214.863 55.2613 214.168 55.1602L214.147 54.9824C215.081 54.7868 215.842 54.4837 216.432 54.0723C217.019 53.6459 217.438 53.1263 217.686 52.5137C217.933 51.9011 218.01 51.1876 217.915 50.374C217.805 49.4272 217.487 48.6461 216.96 48.0312C216.433 47.4165 215.716 46.988 214.808 46.7461ZM230.365 44.9834C229.455 44.7268 228.378 44.6687 227.135 44.8096L218.821 45.752L220.548 60.6211L223.919 60.2393L223.292 54.8457L225.517 54.5938C226.101 54.5276 226.571 54.5273 226.928 54.5918C227.298 54.6398 227.608 54.7616 227.858 54.958C228.109 55.1544 228.361 55.4333 228.615 55.7939L231.132 59.4219L235.041 58.9785L232.397 55.2305C232.053 54.7451 231.695 54.344 231.324 54.0264C230.953 53.7086 230.42 53.4986 229.726 53.3975L229.705 53.2197C230.639 53.024 231.401 52.7202 231.99 52.3086C232.578 51.8824 232.996 51.3633 233.243 50.751C233.491 50.1384 233.567 49.4249 233.473 48.6113C233.363 47.6645 233.044 46.8834 232.518 46.2686C231.991 45.6538 231.273 45.2253 230.365 44.9834ZM447.033 48.1816C436.389 49.1158 450.642 47.0904 440 48.0332C391.588 52.3222 351.092 55.7345 309.79 59.2041C337.453 47.6175 364.776 35.1449 391.757 21.7822C394.784 20.2831 397.806 18.7715 400.824 17.25C412.508 15.8006 423.399 14.4698 433.157 13.3125C436.702 12.8921 437.452 12.8039 437.28 12.8252C437.913 12.7496 438.795 12.6439 440 12.5C442.344 24.3937 444.689 36.2879 447.033 48.1816ZM246.598 43.3457C245.31 42.847 243.813 42.6952 242.105 42.8887C240.458 43.0754 239.056 43.5557 237.901 44.3311C236.76 45.0899 235.927 46.084 235.402 47.3125C234.891 48.5247 234.725 49.9084 234.905 51.4619C235.086 53.0151 235.565 54.3322 236.343 55.4131C237.134 56.4776 238.174 57.2601 239.461 57.7588C240.761 58.241 242.236 58.3889 243.884 58.2021C245.591 58.0087 247.016 57.5323 248.157 56.7734C249.297 55.9998 250.129 55.0057 250.656 53.792C251.181 52.5633 251.354 51.1717 251.174 49.6182C250.993 48.0648 250.507 46.7559 249.716 45.6914C248.923 44.612 247.883 43.8296 246.598 43.3457ZM263.324 41.248C262.414 40.9914 261.337 40.9343 260.094 41.0752L251.779 42.0166L253.507 56.8867L256.877 56.5049L256.251 51.1113L258.476 50.8594C259.06 50.7932 259.53 50.7929 259.887 50.8574C260.257 50.9055 260.567 51.0272 260.817 51.2236C261.068 51.42 261.32 51.6988 261.574 52.0596L264.09 55.6875L268 55.2441L265.356 51.4961C265.012 51.0106 264.654 50.6087 264.283 50.291C263.912 49.9733 263.379 49.7642 262.685 49.6631L262.664 49.4854C263.597 49.2896 264.36 48.9858 264.949 48.5742C265.537 48.1479 265.955 47.6281 266.202 47.0156C266.45 46.403 266.526 45.6896 266.432 44.876C266.322 43.9292 266.003 43.148 265.477 42.5332C264.95 41.9185 264.232 41.4899 263.324 41.248ZM242.477 46.084C243.585 45.9584 244.486 46.0063 245.18 46.2275C245.886 46.4323 246.427 46.8433 246.802 47.46C247.19 48.0605 247.449 48.9158 247.578 50.0254C247.705 51.1203 247.649 52.0116 247.41 52.6982C247.186 53.383 246.755 53.912 246.115 54.2842C245.489 54.64 244.621 54.8803 243.513 55.0059C242.419 55.1298 241.527 55.0882 240.835 54.8818C240.142 54.6606 239.607 54.2419 239.231 53.625C238.856 53.0079 238.605 52.1515 238.478 51.0566C238.349 49.9471 238.397 49.0568 238.623 48.3867C238.847 47.702 239.272 47.1819 239.898 46.8262C240.523 46.4556 241.383 46.2079 242.477 46.084ZM211.902 49.5713C212.696 49.4813 213.298 49.5629 213.707 49.8164C214.114 50.0551 214.36 50.5446 214.446 51.2842C214.537 52.0681 214.412 52.6218 214.07 52.9453C213.727 53.254 213.158 53.454 212.364 53.5439L207.443 54.1016L206.981 50.1289L211.902 49.5713ZM227.46 47.8076C228.254 47.7177 228.856 47.8002 229.265 48.0537C229.672 48.2924 229.918 48.7818 230.004 49.5215C230.095 50.3054 229.97 50.8591 229.628 51.1826C229.284 51.4913 228.716 51.6903 227.922 51.7803L223.001 52.3379L222.539 48.3652L227.46 47.8076ZM260.419 44.0732C261.213 43.9833 261.815 44.0649 262.224 44.3184C262.631 44.557 262.877 45.0466 262.963 45.7861C263.054 46.5703 262.929 47.1247 262.587 47.4482C262.243 47.7569 261.675 47.9559 260.881 48.0459L255.96 48.6035L255.498 44.6309L260.419 44.0732ZM165.593 18.4961C152.626 24.4704 139.752 30.6856 126.971 37.1426C126.381 37.4403 125.792 37.7393 125.203 38.0381C94.1977 39.3205 63.1681 40.4706 32.1709 41.7979C21.4427 42.2572 10.718 42.7378 0 43.2529C10.537 41.7408 21.0679 40.1939 31.5947 38.626C76.2707 31.9719 120.877 24.9324 165.593 18.4961Z" fill="#F15156"/>
</svg>
