<svg width="582" height="122" viewBox="0 0 582 122" fill="none" xmlns="http://www.w3.org/2000/svg">
<path fill-rule="evenodd" clip-rule="evenodd" d="M82.6048 45.8129C75.2107 51.4264 74.0916 52.4404 67.7142 57.3346C68.0151 57.3392 69.397 56.6255 70.7788 55.912C72.1601 55.1986 73.5413 54.4854 73.842 54.49L74.5 54.5C76.0825 54.5242 77.6771 54.5486 79.2616 54.5737L109.97 59.4285L46.959 102.056C44.4614 103.562 41.9901 105.075 39.5615 106.601C39.5615 106.601 64.6347 71.4599 69.5149 64.5046C63.0644 70.233 62.4194 70.233 59.1941 70.0108C55.5398 70.0508 51.8833 70.0898 48.2246 70.1277L6.9045 70.233L18.7655 59.2393C27.6723 50.0752 36.801 40.9779 45.9298 31.8805C51.1668 26.6615 56.4046 21.4416 61.5997 16.21C63.3243 14.4733 65.0441 12.7351 66.758 10.9952L110.859 24.2651C108.738 25.8825 106.623 27.5017 104.513 29.1224C97.9231 34.1834 90.2494 40.0092 82.6048 45.8129Z" fill="#F15156"/>
<path d="M381.5 59.0435C446.522 51.3263 502.134 44.0672 567.157 36.3556C570.702 35.9352 571.452 35.8472 571.28 35.8685C571.913 35.7929 572.795 35.6875 574 35.5435C576.344 47.4373 578.689 59.3316 581.033 71.2254C570.389 72.1595 584.642 70.1336 574 71.0764C486.059 78.8674 424.239 83.767 336.261 91.3685L267.67 98.0435L321.766 67.1272C327.71 63.8328 343.55 57.3326 349.5 54.0435C346.965 54.1867 334.536 57.5356 332 57.6735C276.835 60.6737 221.451 62.4742 166.17 64.8412C155.442 65.3006 144.718 65.781 134 66.2961C144.537 64.784 155.068 63.2373 165.594 61.6694C238.916 50.7488 312.05 38.7899 385.789 30.1635C388.606 29.8339 391.423 29.5051 394.241 29.1769L453.625 23.0435L406.962 50.7773C405.021 51.9733 403.078 53.1677 401.135 54.3621L400.149 54.9684C399.477 55.3818 382.172 58.63 381.5 59.0435Z" fill="#F15156"/>
<path d="M212.24 92.0435H197.84V27.7235H217.328L232.4 59.4035L238.448 74.4755H239.504L245.36 59.4035L259.952 27.7235H279.536V92.0435H265.136V59.4035L265.616 49.3235H264.56L260.816 59.4035L247.376 88.2035H229.904L216.464 59.4035L212.72 49.3235H211.664L212.24 59.4035V92.0435ZM298.898 92.0435H282.77L310.898 27.7235H331.442L359.762 92.0435H343.25L325.586 50.8595L321.65 40.8755H320.594L316.658 50.8595L298.898 92.0435ZM343.442 77.8355H298.13V64.8755H343.442V77.8355ZM377.521 92.0435H363.121V27.7235H378.481L401.521 58.1555L410.353 71.6915H411.409L410.737 58.7315V27.7235H425.137V92.0435H409.777L386.065 61.3235L377.905 49.2275H376.945L377.521 61.0355V92.0435ZM447.178 92.0435H432.778V27.7235H447.178V92.0435ZM487.643 93.0035C480.603 93.0035 474.491 91.6595 469.307 88.9715C464.187 86.2195 460.219 82.3795 457.403 77.4515C454.651 72.4595 453.275 66.6035 453.275 59.8835C453.275 53.1635 454.651 47.3395 457.403 42.4115C460.219 37.4195 464.187 33.5795 469.307 30.8915C474.491 28.1395 480.603 26.7635 487.643 26.7635C494.363 26.7635 500.155 27.8195 505.019 29.9315C509.947 32.0435 513.755 35.0515 516.443 38.9555C519.131 42.8595 520.475 47.5635 520.475 53.0675V54.5075H504.443V53.0675C504.443 48.8435 503.131 45.7075 500.507 43.6595C497.947 41.6115 493.755 40.5875 487.931 40.5875C483.259 40.5875 479.483 41.2275 476.603 42.5075C473.787 43.7235 471.739 45.7395 470.459 48.5555C469.179 51.3075 468.539 55.0835 468.539 59.8835C468.539 64.6195 469.179 68.3955 470.459 71.2115C471.739 74.0275 473.787 76.0755 476.603 77.3555C479.483 78.5715 483.259 79.1795 487.931 79.1795C493.755 79.1795 497.947 78.1555 500.507 76.1075C503.131 74.0595 504.443 70.9235 504.443 66.6995V65.2595H520.475V66.6995C520.475 72.1395 519.131 76.8435 516.443 80.8115C513.755 84.7155 509.947 87.7235 505.019 89.8355C500.155 91.9475 494.363 93.0035 487.643 93.0035ZM544.283 92.0435H525.755V75.2435H544.283V92.0435Z" fill="white"/>
</svg>
