<svg width="612" height="157" viewBox="0 0 612 157" fill="none" xmlns="http://www.w3.org/2000/svg">
<path d="M13.8066 33.2832V119L0.196289 111.628H0V25.8066L13.8066 33.2832Z" fill="#525252"/>
<rect x="99.5212" y="119" width="85.7145" height="85.7145" transform="rotate(-180 99.5212 119)" fill="#101010"/>
<path d="M85.7148 25.8066L99.5215 33.2852H13.8066L0 25.8066H85.7148Z" fill="#3A3A3A"/>
<path d="M85.4172 87.8828L85.9514 88.2393L86.4973 87.9014L89.1584 86.2539L91.1682 87.8359L91.8528 88.375L92.4797 87.7715L92.6184 87.6377V112.097H72.5208V87.2559L73.2571 87.8359L73.8264 88.2852L74.4299 87.8828L76.8987 86.2373L79.3684 87.8828L79.9231 88.252L80.4778 87.8828L82.9475 86.2373L85.4172 87.8828ZM92.6184 84.8613L91.7209 85.7256L89.8469 84.25L89.2971 83.8174L88.7014 84.1855L85.9905 85.8623L83.5022 84.2041L82.9475 83.835L82.3928 84.2041L79.9231 85.8486L77.4534 84.2041L76.8997 83.835L76.345 84.2041L73.9241 85.8154L72.5208 84.7109V79.7979H92.6184V84.8613Z" fill="#E66E6E"/>
<path d="M158.78 119H138.044V33.24H166.204L184.764 73.304L193.084 94.04H194.492L202.428 73.304L220.476 33.24H248.636V119H227.9V78.04L228.54 64.344H227.132L222.14 78.04L205.884 113.88H180.668L164.412 78.04L159.42 64.344H158.012L158.78 78.04V119ZM275.583 119H252.287L289.663 33.24H319.359L356.863 119H333.055L310.527 65.88L305.151 52.056H303.615L298.367 65.88L275.583 119ZM334.591 101.08H273.279V82.392H334.591V101.08ZM381.405 119H360.669V33.24H382.813L411.229 71.128L423.261 89.688H424.797L423.773 72.024V33.24H444.509V119H422.365L392.797 80.6L381.917 64.216H380.509L381.405 80.088V119ZM474.655 119H453.919V33.24H474.655V119ZM528.588 120.28C519.031 120.28 510.796 118.488 503.884 114.904C496.972 111.235 491.639 106.115 487.884 99.544C484.13 92.888 482.252 85.08 482.252 76.12C482.252 67.16 484.13 59.3947 487.884 52.824C491.639 46.168 496.972 41.048 503.884 37.464C510.796 33.7947 519.031 31.96 528.588 31.96C537.804 31.96 545.698 33.368 552.268 36.184C558.924 39 564.044 43.096 567.628 48.472C571.298 53.7627 573.132 60.12 573.132 67.544V69.592H549.964V67.544C549.964 62.0827 548.343 58.1147 545.1 55.64C541.943 53.1653 536.567 51.928 528.972 51.928C522.914 51.928 518.05 52.6533 514.38 54.104C510.796 55.5547 508.236 58.072 506.7 61.656C505.164 65.1547 504.396 69.976 504.396 76.12C504.396 82.1787 505.164 87 506.7 90.584C508.236 94.168 510.796 96.6853 514.38 98.136C518.05 99.5867 522.914 100.312 528.972 100.312C536.567 100.312 541.943 99.0747 545.1 96.6C548.343 94.1253 549.964 90.1573 549.964 84.696V82.648H573.132V84.696C573.132 92.0347 571.298 98.392 567.628 103.768C564.044 109.144 558.924 113.24 552.268 116.056C545.698 118.872 537.804 120.28 528.588 120.28Z" fill="#0E0E0E"/>
<path d="M606.778 119H579.898V95.96H606.778V119Z" fill="#0E0E0E"/>
<path d="M606.778 119H579.898V95.96H606.778V119Z" fill="#E96464"/>
</svg>
